<?xml version="1.0" encoding="utf-8"?>
<!-- Generator: Adobe Illustrator 23.0.1, SVG Export Plug-In . SVG Version: 6.00 Build 0)  -->
<svg version="1.1" id="Layer_1" xmlns="http://www.w3.org/2000/svg" xmlns:xlink="http://www.w3.org/1999/xlink" x="0px" y="0px"
	 viewBox="0 0 256 256" style="enable-background:new 0 0 256 256;" xml:space="preserve">
<path d="M233.4,146.9c-0.6-8.4-1.9-14.6-4.2-20.3c-6.3-15.2-18.1-27-33.3-33.3c-2-0.8-4.1-1.5-6.3-2.1V61.6C189.6,27.6,162,0,128,0
	S66.4,27.6,66.4,61.6v29.6c-2.2,0.6-4.3,1.3-6.3,2.1c-15.2,6.3-27,18.1-33.3,33.3c-2.4,5.7-3.7,11.9-4.2,20.3
	c-0.5,6.8-0.5,14.8-0.5,25v0.8c0,10.2,0,18.2,0.5,25c0.6,8.4,1.9,14.6,4.2,20.3c6.3,15.2,18.1,27,33.3,33.3
	c5.7,2.4,11.9,3.7,20.3,4.2c6.8,0.5,14.8,0.5,25,0.5h45.1c10.2,0,18.2,0,25-0.5c8.4-0.6,14.6-1.9,20.3-4.2
	c15.2-6.3,27-18.1,33.3-33.3c2.4-5.7,3.7-11.9,4.2-20.3c0.5-6.8,0.5-14.8,0.5-25v-0.8C233.9,161.7,233.9,153.6,233.4,146.9z
	 M101,61.6c0-14.9,12.1-27,27-27c14.9,0,27,12.1,27,27v27c-1.4,0-2.9,0-4.5,0h-45.1c-1.5,0-3,0-4.4,0V61.6z M198.9,195.3
	c-0.3,4.5-0.8,7.4-1.7,9.4c-2.8,6.7-7.9,11.8-14.6,14.6c-2.1,0.9-5,1.4-9.4,1.7c-5.6,0.4-12.9,0.4-23.1,0.4h-44.3
	c-10.1,0-17.5,0-23.1-0.4c-4.5-0.3-7.4-0.8-9.4-1.7c-6.7-2.8-11.8-7.9-14.6-14.6c-0.9-2.1-1.4-5-1.7-9.4c-0.4-5.6-0.4-12.9-0.4-23.1
	c0-10.1,0-17.5,0.4-23.1c0.3-4.5,0.8-7.4,1.7-9.4c2.8-6.7,7.9-11.8,14.6-14.6c2.1-0.9,5-1.4,9.4-1.7h0c5.6-0.4,12.9-0.4,23.1-0.4
	h44.3c10.1,0,17.5,0,23.1,0.4c4.5,0.3,7.4,0.8,9.4,1.7c6.7,2.8,11.8,7.9,14.6,14.6c0.9,2.1,1.4,5,1.7,9.4c0.4,5.6,0.4,12.9,0.4,23.1
	S199.3,189.7,198.9,195.3z"/>
<path d="M128,143.3c-9.2,0-16.7,7.5-16.7,16.7v21.3c0,9.2,7.5,16.7,16.7,16.7c9.2,0,16.7-7.5,16.7-16.7V160
	C144.7,150.8,137.2,143.3,128,143.3z"/>
</svg>
