<?xml version="1.0" encoding="utf-8"?>
<!-- Generator: Adobe Illustrator 23.0.1, SVG Export Plug-In . SVG Version: 6.00 Build 0)  -->
<svg version="1.1" id="Layer_1" xmlns="http://www.w3.org/2000/svg" xmlns:xlink="http://www.w3.org/1999/xlink" x="0px" y="0px"
	 viewBox="0 0 256 256" style="enable-background:new 0 0 256 256;" xml:space="preserve">
<path d="M224,24H32C14.4,24,0,38.4,0,56v144c0,17.6,14.4,32,32,32h192c17.6,0,32-14.4,32-32V56C256,38.4,241.6,24,224,24z
	 M128,116.3L43.5,56h168.9L128,116.3z M32,87.1l86.7,61.9l0.5,0.3c0.4,0.2,0.8,0.5,1.3,0.7c0.4,0.2,0.7,0.4,1.1,0.5l0.1,0
	c1.9,0.9,4,1.4,6.2,1.4h0.4c2.3-0.1,4.4-0.6,6.5-1.6c0.3-0.2,0.7-0.3,1-0.5c0.4-0.2,0.8-0.4,1.3-0.7l0.4-0.3L224,87.1V200h-14.5v0
	H32V87.1z"/>
</svg>
